<svg xmlns="http://www.w3.org/2000/svg" version="1.0" width="600.000000" height="600.000000" preserveAspectRatio="xMidYMid meet"><rect id="backgroundrect" width="100%" height="100%" x="0" y="0" fill="none" stroke="none"/>
<metadata>
Created by potrace 1.15, written by Peter Selinger 2001-2017
</metadata>

<g class="currentLayer" style=""><title>Layer 1</title><g transform="translate(0,600) scale(0.10000000149011612,-0.10000000149011612) " fill="#ffffff" stroke="none" id="svg_1" class="selected" fill-opacity="1">
<path d="M3271 5869 c-695 -50 -1335 -400 -1761 -964 -251 -333 -424 -771 -469 -1187 -14 -122 -14 -404 -1 -523 47 -430 215 -859 468 -1194 l63 -84 -709 -711 c-769 -771 -736 -733 -736 -846 1 -127 106 -231 233 -233 114 -2 75 -36 846 734 l710 709 89 -65 c318 -235 683 -388 1071 -450 137 -22 485 -31 627 -16 820 88 1535 580 1913 1316 249 486 323 1076 204 1620 -111 509 -400 990 -794 1322 -407 342 -883 535 -1420 573 -154 11 -169 11 -334 -1z m364 -494 c119 -9 305 -49 440 -95 736 -254 1255 -932 1304 -1702 70 -1114 -814 -2058 -1929 -2058 -835 0 -1584 548 -1840 1345 -133 416 -120 869 37 1275 270 699 928 1189 1667 1240 109 7 159 6 321 -5z" id="svg_2" fill="#ffffff" fill-opacity="1"/>
</g></g></svg>